<mxfile host="Electron" modified="2023-08-29T16:43:46.093Z" agent="Mozilla/5.0 (Macintosh; Intel Mac OS X 10_15_7) AppleWebKit/537.36 (KHTML, like Gecko) draw.io/21.6.8 Chrome/114.0.5735.289 Electron/25.5.0 Safari/537.36" etag="-8kJkthIaL546gazr-4N" version="21.6.8" type="device" pages="2">
  <diagram name="refresh_processing" id="mIbg8O-5iSpR-RM47w-i">
    <mxGraphModel dx="2021" dy="775" grid="1" gridSize="10" guides="1" tooltips="1" connect="1" arrows="1" fold="1" page="1" pageScale="1" pageWidth="827" pageHeight="1169" math="0" shadow="0">
      <root>
        <mxCell id="0" />
        <mxCell id="1" parent="0" />
        <mxCell id="gz06oeBtFZSL6YdTn5uD-39" style="edgeStyle=orthogonalEdgeStyle;rounded=0;orthogonalLoop=1;jettySize=auto;html=1;exitX=0.25;exitY=1;exitDx=0;exitDy=0;entryX=0.5;entryY=0;entryDx=0;entryDy=0;" parent="1" source="gz06oeBtFZSL6YdTn5uD-19" target="gz06oeBtFZSL6YdTn5uD-44" edge="1">
          <mxGeometry relative="1" as="geometry" />
        </mxCell>
        <mxCell id="gz06oeBtFZSL6YdTn5uD-19" value="Associated Elements (inspects headers and queries relationships)" style="rounded=0;whiteSpace=wrap;html=1;verticalAlign=top;fillColor=#f5f5f5;fontColor=#333333;strokeColor=#666666;" parent="1" vertex="1">
          <mxGeometry x="130" y="310" width="620" height="250" as="geometry" />
        </mxCell>
        <mxCell id="gz06oeBtFZSL6YdTn5uD-16" style="edgeStyle=orthogonalEdgeStyle;rounded=0;orthogonalLoop=1;jettySize=auto;html=1;" parent="1" source="gz06oeBtFZSL6YdTn5uD-1" target="gz06oeBtFZSL6YdTn5uD-2" edge="1">
          <mxGeometry relative="1" as="geometry" />
        </mxCell>
        <mxCell id="gz06oeBtFZSL6YdTn5uD-24" style="edgeStyle=orthogonalEdgeStyle;rounded=0;orthogonalLoop=1;jettySize=auto;html=1;exitX=0.5;exitY=1;exitDx=0;exitDy=0;" parent="1" source="gz06oeBtFZSL6YdTn5uD-1" target="gz06oeBtFZSL6YdTn5uD-13" edge="1">
          <mxGeometry relative="1" as="geometry" />
        </mxCell>
        <mxCell id="gz06oeBtFZSL6YdTn5uD-26" style="edgeStyle=orthogonalEdgeStyle;rounded=0;orthogonalLoop=1;jettySize=auto;html=1;exitX=0.75;exitY=1;exitDx=0;exitDy=0;entryX=0;entryY=0.25;entryDx=0;entryDy=0;" parent="1" source="gz06oeBtFZSL6YdTn5uD-1" target="gz06oeBtFZSL6YdTn5uD-19" edge="1">
          <mxGeometry relative="1" as="geometry" />
        </mxCell>
        <mxCell id="gz06oeBtFZSL6YdTn5uD-1" value="asset" style="rounded=0;whiteSpace=wrap;html=1;fillColor=#d5e8d4;strokeColor=#82b366;" parent="1" vertex="1">
          <mxGeometry x="-60" y="180" width="120" height="60" as="geometry" />
        </mxCell>
        <mxCell id="gz06oeBtFZSL6YdTn5uD-2" value="asset_types" style="rounded=0;whiteSpace=wrap;html=1;" parent="1" vertex="1">
          <mxGeometry x="130" y="180" width="120" height="60" as="geometry" />
        </mxCell>
        <mxCell id="gz06oeBtFZSL6YdTn5uD-20" style="edgeStyle=orthogonalEdgeStyle;rounded=0;orthogonalLoop=1;jettySize=auto;html=1;exitX=0.5;exitY=1;exitDx=0;exitDy=0;" parent="1" source="gz06oeBtFZSL6YdTn5uD-3" target="gz06oeBtFZSL6YdTn5uD-4" edge="1">
          <mxGeometry relative="1" as="geometry" />
        </mxCell>
        <mxCell id="gz06oeBtFZSL6YdTn5uD-3" value="certifications" style="rounded=0;whiteSpace=wrap;html=1;" parent="1" vertex="1">
          <mxGeometry x="440" y="360" width="120" height="60" as="geometry" />
        </mxCell>
        <mxCell id="gz06oeBtFZSL6YdTn5uD-4" value="certification_type" style="rounded=0;whiteSpace=wrap;html=1;" parent="1" vertex="1">
          <mxGeometry x="440" y="460" width="120" height="60" as="geometry" />
        </mxCell>
        <mxCell id="gz06oeBtFZSL6YdTn5uD-5" value="collaboration_activity" style="rounded=0;whiteSpace=wrap;html=1;" parent="1" vertex="1">
          <mxGeometry x="300" y="460" width="120" height="60" as="geometry" />
        </mxCell>
        <mxCell id="gz06oeBtFZSL6YdTn5uD-6" value="contributions" style="rounded=0;whiteSpace=wrap;html=1;" parent="1" vertex="1">
          <mxGeometry x="-10" y="950" width="120" height="60" as="geometry" />
        </mxCell>
        <mxCell id="gz06oeBtFZSL6YdTn5uD-7" value="correlation_properties" style="rounded=0;whiteSpace=wrap;html=1;" parent="1" vertex="1">
          <mxGeometry x="160" y="360" width="120" height="60" as="geometry" />
        </mxCell>
        <mxCell id="gz06oeBtFZSL6YdTn5uD-27" style="edgeStyle=orthogonalEdgeStyle;rounded=0;orthogonalLoop=1;jettySize=auto;html=1;exitX=1;exitY=0.5;exitDx=0;exitDy=0;entryX=0.75;entryY=0;entryDx=0;entryDy=0;" parent="1" source="gz06oeBtFZSL6YdTn5uD-8" target="gz06oeBtFZSL6YdTn5uD-19" edge="1">
          <mxGeometry relative="1" as="geometry">
            <Array as="points">
              <mxPoint x="720" y="390" />
              <mxPoint x="720" y="290" />
              <mxPoint x="595" y="290" />
            </Array>
          </mxGeometry>
        </mxCell>
        <mxCell id="gz06oeBtFZSL6YdTn5uD-8" value="data_fields&lt;br&gt;(assets only)" style="rounded=0;whiteSpace=wrap;html=1;" parent="1" vertex="1">
          <mxGeometry x="580" y="360" width="120" height="60" as="geometry" />
        </mxCell>
        <mxCell id="gz06oeBtFZSL6YdTn5uD-9" value="department" style="rounded=0;whiteSpace=wrap;html=1;" parent="1" vertex="1">
          <mxGeometry x="70" y="800" width="120" height="60" as="geometry" />
        </mxCell>
        <mxCell id="gz06oeBtFZSL6YdTn5uD-34" style="edgeStyle=orthogonalEdgeStyle;rounded=0;orthogonalLoop=1;jettySize=auto;html=1;exitX=1;exitY=0.5;exitDx=0;exitDy=0;entryX=0;entryY=0.5;entryDx=0;entryDy=0;" parent="1" source="gz06oeBtFZSL6YdTn5uD-10" target="gz06oeBtFZSL6YdTn5uD-11" edge="1">
          <mxGeometry relative="1" as="geometry" />
        </mxCell>
        <mxCell id="gz06oeBtFZSL6YdTn5uD-35" style="edgeStyle=orthogonalEdgeStyle;rounded=0;orthogonalLoop=1;jettySize=auto;html=1;exitX=0.5;exitY=0;exitDx=0;exitDy=0;" parent="1" source="gz06oeBtFZSL6YdTn5uD-10" target="gz06oeBtFZSL6YdTn5uD-19" edge="1">
          <mxGeometry relative="1" as="geometry" />
        </mxCell>
        <mxCell id="gz06oeBtFZSL6YdTn5uD-10" value="glossary" style="rounded=0;whiteSpace=wrap;html=1;fillColor=#d5e8d4;strokeColor=#82b366;" parent="1" vertex="1">
          <mxGeometry x="380" y="680" width="120" height="60" as="geometry" />
        </mxCell>
        <mxCell id="gz06oeBtFZSL6YdTn5uD-36" style="edgeStyle=orthogonalEdgeStyle;rounded=0;orthogonalLoop=1;jettySize=auto;html=1;exitX=0.5;exitY=0;exitDx=0;exitDy=0;entryX=0.75;entryY=1;entryDx=0;entryDy=0;" parent="1" source="gz06oeBtFZSL6YdTn5uD-11" target="gz06oeBtFZSL6YdTn5uD-19" edge="1">
          <mxGeometry relative="1" as="geometry" />
        </mxCell>
        <mxCell id="gz06oeBtFZSL6YdTn5uD-11" value="term_activity" style="rounded=0;whiteSpace=wrap;html=1;" parent="1" vertex="1">
          <mxGeometry x="535" y="680" width="120" height="60" as="geometry" />
        </mxCell>
        <mxCell id="gz06oeBtFZSL6YdTn5uD-12" value="license" style="rounded=0;whiteSpace=wrap;html=1;" parent="1" vertex="1">
          <mxGeometry x="580" y="460" width="120" height="60" as="geometry" />
        </mxCell>
        <mxCell id="gz06oeBtFZSL6YdTn5uD-13" value="location" style="rounded=0;whiteSpace=wrap;html=1;" parent="1" vertex="1">
          <mxGeometry x="-60" y="400" width="120" height="60" as="geometry" />
        </mxCell>
        <mxCell id="gz06oeBtFZSL6YdTn5uD-14" value="metadata_collection" style="rounded=0;whiteSpace=wrap;html=1;" parent="1" vertex="1">
          <mxGeometry x="300" y="360" width="120" height="60" as="geometry" />
        </mxCell>
        <mxCell id="gz06oeBtFZSL6YdTn5uD-15" value="related_assets&lt;br&gt;(assets only)" style="rounded=0;whiteSpace=wrap;html=1;" parent="1" vertex="1">
          <mxGeometry x="160" y="460" width="120" height="60" as="geometry" />
        </mxCell>
        <mxCell id="gz06oeBtFZSL6YdTn5uD-21" value="role" style="rounded=0;whiteSpace=wrap;html=1;" parent="1" vertex="1">
          <mxGeometry x="-180" y="790" width="120" height="60" as="geometry" />
        </mxCell>
        <mxCell id="gz06oeBtFZSL6YdTn5uD-22" value="role2user" style="rounded=0;whiteSpace=wrap;html=1;" parent="1" vertex="1">
          <mxGeometry x="-90" y="870" width="120" height="60" as="geometry" />
        </mxCell>
        <mxCell id="gz06oeBtFZSL6YdTn5uD-25" style="edgeStyle=orthogonalEdgeStyle;rounded=0;orthogonalLoop=1;jettySize=auto;html=1;exitX=0.5;exitY=0;exitDx=0;exitDy=0;entryX=0.5;entryY=1;entryDx=0;entryDy=0;" parent="1" source="gz06oeBtFZSL6YdTn5uD-23" target="gz06oeBtFZSL6YdTn5uD-13" edge="1">
          <mxGeometry relative="1" as="geometry" />
        </mxCell>
        <mxCell id="gz06oeBtFZSL6YdTn5uD-28" style="edgeStyle=orthogonalEdgeStyle;rounded=0;orthogonalLoop=1;jettySize=auto;html=1;exitX=0;exitY=0.5;exitDx=0;exitDy=0;" parent="1" source="gz06oeBtFZSL6YdTn5uD-23" target="gz06oeBtFZSL6YdTn5uD-21" edge="1">
          <mxGeometry relative="1" as="geometry" />
        </mxCell>
        <mxCell id="gz06oeBtFZSL6YdTn5uD-29" style="edgeStyle=orthogonalEdgeStyle;rounded=0;orthogonalLoop=1;jettySize=auto;html=1;exitX=0.25;exitY=1;exitDx=0;exitDy=0;" parent="1" source="gz06oeBtFZSL6YdTn5uD-23" target="gz06oeBtFZSL6YdTn5uD-22" edge="1">
          <mxGeometry relative="1" as="geometry" />
        </mxCell>
        <mxCell id="gz06oeBtFZSL6YdTn5uD-30" style="edgeStyle=orthogonalEdgeStyle;rounded=0;orthogonalLoop=1;jettySize=auto;html=1;exitX=0.5;exitY=1;exitDx=0;exitDy=0;" parent="1" source="gz06oeBtFZSL6YdTn5uD-23" target="gz06oeBtFZSL6YdTn5uD-6" edge="1">
          <mxGeometry relative="1" as="geometry" />
        </mxCell>
        <mxCell id="gz06oeBtFZSL6YdTn5uD-32" style="edgeStyle=orthogonalEdgeStyle;rounded=0;orthogonalLoop=1;jettySize=auto;html=1;exitX=0.75;exitY=1;exitDx=0;exitDy=0;" parent="1" source="gz06oeBtFZSL6YdTn5uD-23" target="gz06oeBtFZSL6YdTn5uD-9" edge="1">
          <mxGeometry relative="1" as="geometry" />
        </mxCell>
        <mxCell id="gz06oeBtFZSL6YdTn5uD-33" style="edgeStyle=orthogonalEdgeStyle;rounded=0;orthogonalLoop=1;jettySize=auto;html=1;exitX=0.75;exitY=0;exitDx=0;exitDy=0;entryX=0;entryY=0.75;entryDx=0;entryDy=0;" parent="1" source="gz06oeBtFZSL6YdTn5uD-23" target="gz06oeBtFZSL6YdTn5uD-19" edge="1">
          <mxGeometry relative="1" as="geometry" />
        </mxCell>
        <mxCell id="gz06oeBtFZSL6YdTn5uD-23" value="user_identity" style="rounded=0;whiteSpace=wrap;html=1;fillColor=#d5e8d4;strokeColor=#82b366;" parent="1" vertex="1">
          <mxGeometry x="-60" y="620" width="120" height="60" as="geometry" />
        </mxCell>
        <mxCell id="gz06oeBtFZSL6YdTn5uD-38" value="reference_levels" style="rounded=0;whiteSpace=wrap;html=1;fillColor=#d5e8d4;strokeColor=#82b366;" parent="1" vertex="1">
          <mxGeometry x="-210" y="180" width="120" height="60" as="geometry" />
        </mxCell>
        <mxCell id="gz06oeBtFZSL6YdTn5uD-44" value="external_user" style="rounded=0;whiteSpace=wrap;html=1;fillColor=#d5e8d4;strokeColor=#82b366;" parent="1" vertex="1">
          <mxGeometry x="225" y="681" width="120" height="60" as="geometry" />
        </mxCell>
      </root>
    </mxGraphModel>
  </diagram>
  <diagram id="5UoE_zVTooAY_U5yAzMK" name="server-configuration">
    <mxGraphModel dx="1194" dy="775" grid="1" gridSize="10" guides="1" tooltips="1" connect="1" arrows="1" fold="1" page="1" pageScale="1" pageWidth="827" pageHeight="1169" math="0" shadow="0">
      <root>
        <mxCell id="0" />
        <mxCell id="1" parent="0" />
        <mxCell id="zbZ4FyOHF6UqzeL5ZnT9-2" value="" style="ellipse;shape=cloud;whiteSpace=wrap;html=1;fillColor=#d0cee2;strokeColor=#56517e;opacity=20;" vertex="1" parent="1">
          <mxGeometry x="104" y="250" width="516" height="280" as="geometry" />
        </mxCell>
        <mxCell id="sXA6OS0uKU9VO2fElbKN-1" value="Nanny Platform (9446)" style="rounded=0;whiteSpace=wrap;html=1;verticalAlign=top;fillColor=#d0cee2;strokeColor=#56517e;" parent="1" vertex="1">
          <mxGeometry x="350" y="60" width="160" height="410" as="geometry" />
        </mxCell>
        <mxCell id="sXA6OS0uKU9VO2fElbKN-3" value="KV Store" style="shape=cylinder3;whiteSpace=wrap;html=1;boundedLbl=1;backgroundOutline=1;size=5;fillColor=#76608a;strokeColor=#432D57;fontColor=#ffffff;" parent="1" vertex="1">
          <mxGeometry x="570" y="287" width="140" height="60" as="geometry" />
        </mxCell>
        <mxCell id="sXA6OS0uKU9VO2fElbKN-4" value="Observations&lt;br&gt;By Egeria" style="shape=cylinder3;whiteSpace=wrap;html=1;boundedLbl=1;backgroundOutline=1;size=5;fillColor=#76608a;strokeColor=#432D57;fontColor=#ffffff;" parent="1" vertex="1">
          <mxGeometry x="570" y="113" width="140" height="60" as="geometry" />
        </mxCell>
        <mxCell id="sXA6OS0uKU9VO2fElbKN-6" style="edgeStyle=orthogonalEdgeStyle;rounded=0;orthogonalLoop=1;jettySize=auto;html=1;exitX=1;exitY=0.5;exitDx=0;exitDy=0;entryX=0;entryY=0;entryDx=0;entryDy=17.5;entryPerimeter=0;fillColor=#76608a;strokeColor=#432D57;" parent="1" source="sXA6OS0uKU9VO2fElbKN-5" target="sXA6OS0uKU9VO2fElbKN-4" edge="1">
          <mxGeometry relative="1" as="geometry" />
        </mxCell>
        <mxCell id="sXA6OS0uKU9VO2fElbKN-11" style="edgeStyle=orthogonalEdgeStyle;rounded=0;orthogonalLoop=1;jettySize=auto;html=1;exitX=0;exitY=0.25;exitDx=0;exitDy=0;entryX=0.875;entryY=0.5;entryDx=0;entryDy=0;entryPerimeter=0;" parent="1" source="sXA6OS0uKU9VO2fElbKN-5" target="sXA6OS0uKU9VO2fElbKN-10" edge="1">
          <mxGeometry relative="1" as="geometry" />
        </mxCell>
        <mxCell id="sXA6OS0uKU9VO2fElbKN-5" value="Ecosystem&lt;br&gt;Monitor" style="rounded=0;whiteSpace=wrap;html=1;fillColor=#76608a;strokeColor=#432D57;fontColor=#ffffff;" parent="1" vertex="1">
          <mxGeometry x="370" y="100" width="120" height="60" as="geometry" />
        </mxCell>
        <mxCell id="sXA6OS0uKU9VO2fElbKN-9" style="edgeStyle=orthogonalEdgeStyle;rounded=0;orthogonalLoop=1;jettySize=auto;html=1;exitX=0.5;exitY=1;exitDx=0;exitDy=0;entryX=1;entryY=0.5;entryDx=0;entryDy=0;entryPerimeter=0;fillColor=#76608a;strokeColor=#432D57;" parent="1" source="sXA6OS0uKU9VO2fElbKN-8" target="sXA6OS0uKU9VO2fElbKN-4" edge="1">
          <mxGeometry relative="1" as="geometry" />
        </mxCell>
        <mxCell id="zbZ4FyOHF6UqzeL5ZnT9-4" style="edgeStyle=orthogonalEdgeStyle;rounded=0;orthogonalLoop=1;jettySize=auto;html=1;exitX=0.5;exitY=1;exitDx=0;exitDy=0;entryX=1;entryY=0.5;entryDx=0;entryDy=0;entryPerimeter=0;" edge="1" parent="1" source="sXA6OS0uKU9VO2fElbKN-8" target="zbZ4FyOHF6UqzeL5ZnT9-3">
          <mxGeometry relative="1" as="geometry" />
        </mxCell>
        <mxCell id="sXA6OS0uKU9VO2fElbKN-8" value="" style="shape=trapezoid;perimeter=trapezoidPerimeter;whiteSpace=wrap;html=1;fixedSize=1;fillColor=#76608a;strokeColor=#432D57;fontColor=#ffffff;" parent="1" vertex="1">
          <mxGeometry x="760" y="53" width="120" height="60" as="geometry" />
        </mxCell>
        <mxCell id="sXA6OS0uKU9VO2fElbKN-7" value="SuperSet" style="rounded=1;whiteSpace=wrap;html=1;fillColor=#76608a;strokeColor=#432D57;fontColor=#ffffff;" parent="1" vertex="1">
          <mxGeometry x="760" y="33" width="120" height="60" as="geometry" />
        </mxCell>
        <mxCell id="sXA6OS0uKU9VO2fElbKN-54" style="edgeStyle=orthogonalEdgeStyle;rounded=0;orthogonalLoop=1;jettySize=auto;html=1;exitX=0.55;exitY=0.95;exitDx=0;exitDy=0;exitPerimeter=0;entryX=0;entryY=0.5;entryDx=0;entryDy=0;" parent="1" source="sXA6OS0uKU9VO2fElbKN-10" target="sXA6OS0uKU9VO2fElbKN-52" edge="1">
          <mxGeometry relative="1" as="geometry" />
        </mxCell>
        <mxCell id="sXA6OS0uKU9VO2fElbKN-10" value="Existing Open Metadata Ecosystem" style="ellipse;shape=cloud;whiteSpace=wrap;html=1;fillColor=#dae8fc;strokeColor=#6c8ebf;" parent="1" vertex="1">
          <mxGeometry x="104" y="60" width="180" height="110" as="geometry" />
        </mxCell>
        <mxCell id="sXA6OS0uKU9VO2fElbKN-14" style="edgeStyle=orthogonalEdgeStyle;rounded=0;orthogonalLoop=1;jettySize=auto;html=1;exitX=1;exitY=0.5;exitDx=0;exitDy=0;entryX=0;entryY=0.5;entryDx=0;entryDy=0;entryPerimeter=0;fillColor=#76608a;strokeColor=#432D57;" parent="1" source="sXA6OS0uKU9VO2fElbKN-12" target="sXA6OS0uKU9VO2fElbKN-3" edge="1">
          <mxGeometry relative="1" as="geometry" />
        </mxCell>
        <mxCell id="sXA6OS0uKU9VO2fElbKN-12" value="Nanny Store" style="rounded=0;whiteSpace=wrap;html=1;fillColor=#76608a;strokeColor=#432D57;fontColor=#ffffff;" parent="1" vertex="1">
          <mxGeometry x="370" y="287" width="120" height="60" as="geometry" />
        </mxCell>
        <mxCell id="sXA6OS0uKU9VO2fElbKN-16" style="edgeStyle=orthogonalEdgeStyle;rounded=0;orthogonalLoop=1;jettySize=auto;html=1;exitX=0.5;exitY=0;exitDx=0;exitDy=0;entryX=0.5;entryY=1;entryDx=0;entryDy=0;fillColor=#76608a;strokeColor=#432D57;" parent="1" source="sXA6OS0uKU9VO2fElbKN-13" target="sXA6OS0uKU9VO2fElbKN-12" edge="1">
          <mxGeometry relative="1" as="geometry" />
        </mxCell>
        <mxCell id="sXA6OS0uKU9VO2fElbKN-18" style="edgeStyle=orthogonalEdgeStyle;rounded=0;orthogonalLoop=1;jettySize=auto;html=1;exitX=0;exitY=0.25;exitDx=0;exitDy=0;" parent="1" source="sXA6OS0uKU9VO2fElbKN-13" target="sXA6OS0uKU9VO2fElbKN-17" edge="1">
          <mxGeometry relative="1" as="geometry" />
        </mxCell>
        <mxCell id="sXA6OS0uKU9VO2fElbKN-20" style="edgeStyle=orthogonalEdgeStyle;rounded=0;orthogonalLoop=1;jettySize=auto;html=1;exitX=0;exitY=0.75;exitDx=0;exitDy=0;entryX=1;entryY=0.5;entryDx=0;entryDy=0;" parent="1" source="sXA6OS0uKU9VO2fElbKN-13" target="sXA6OS0uKU9VO2fElbKN-19" edge="1">
          <mxGeometry relative="1" as="geometry" />
        </mxCell>
        <mxCell id="sXA6OS0uKU9VO2fElbKN-13" value="Nanny Harvester" style="rounded=0;whiteSpace=wrap;html=1;fillColor=#76608a;strokeColor=#432D57;fontColor=#ffffff;" parent="1" vertex="1">
          <mxGeometry x="370" y="380" width="120" height="60" as="geometry" />
        </mxCell>
        <mxCell id="sXA6OS0uKU9VO2fElbKN-17" value="Standalone&lt;br&gt;Atlas" style="rounded=0;whiteSpace=wrap;html=1;fillColor=#d5e8d4;strokeColor=#82b366;" parent="1" vertex="1">
          <mxGeometry x="140" y="365" width="120" height="60" as="geometry" />
        </mxCell>
        <mxCell id="sXA6OS0uKU9VO2fElbKN-19" value="Standalone&lt;br&gt;Atlas" style="rounded=0;whiteSpace=wrap;html=1;fillColor=#d5e8d4;strokeColor=#82b366;" parent="1" vertex="1">
          <mxGeometry x="140" y="440" width="120" height="60" as="geometry" />
        </mxCell>
        <mxCell id="sXA6OS0uKU9VO2fElbKN-52" value="" style="rounded=0;whiteSpace=wrap;html=1;" parent="1" vertex="1">
          <mxGeometry x="260" y="210" width="50" height="50" as="geometry" />
        </mxCell>
        <mxCell id="sXA6OS0uKU9VO2fElbKN-55" style="edgeStyle=orthogonalEdgeStyle;rounded=0;orthogonalLoop=1;jettySize=auto;html=1;exitX=0.5;exitY=0;exitDx=0;exitDy=0;entryX=0;entryY=0.75;entryDx=0;entryDy=0;" parent="1" source="sXA6OS0uKU9VO2fElbKN-53" target="sXA6OS0uKU9VO2fElbKN-5" edge="1">
          <mxGeometry relative="1" as="geometry" />
        </mxCell>
        <mxCell id="sXA6OS0uKU9VO2fElbKN-53" value="" style="rounded=0;whiteSpace=wrap;html=1;" parent="1" vertex="1">
          <mxGeometry x="270" y="210" width="30" height="45" as="geometry" />
        </mxCell>
        <mxCell id="sXA6OS0uKU9VO2fElbKN-56" value="AuditLog" style="text;html=1;align=center;verticalAlign=middle;resizable=0;points=[];autosize=1;strokeColor=none;fillColor=none;" parent="1" vertex="1">
          <mxGeometry x="284" y="178" width="70" height="30" as="geometry" />
        </mxCell>
        <mxCell id="sXA6OS0uKU9VO2fElbKN-59" style="edgeStyle=orthogonalEdgeStyle;rounded=0;orthogonalLoop=1;jettySize=auto;html=1;exitX=0.5;exitY=1;exitDx=0;exitDy=0;" parent="1" source="sXA6OS0uKU9VO2fElbKN-57" target="sXA6OS0uKU9VO2fElbKN-12" edge="1">
          <mxGeometry relative="1" as="geometry" />
        </mxCell>
        <mxCell id="sXA6OS0uKU9VO2fElbKN-60" style="edgeStyle=orthogonalEdgeStyle;rounded=0;orthogonalLoop=1;jettySize=auto;html=1;exitX=1;exitY=0.5;exitDx=0;exitDy=0;entryX=0;entryY=0.5;entryDx=0;entryDy=0;entryPerimeter=0;" parent="1" source="sXA6OS0uKU9VO2fElbKN-57" target="zbZ4FyOHF6UqzeL5ZnT9-3" edge="1">
          <mxGeometry relative="1" as="geometry" />
        </mxCell>
        <mxCell id="sXA6OS0uKU9VO2fElbKN-57" value="Nanny&lt;br&gt;Monitor" style="rounded=0;whiteSpace=wrap;html=1;fillColor=#76608a;strokeColor=#432D57;fontColor=#ffffff;" parent="1" vertex="1">
          <mxGeometry x="370" y="190" width="120" height="60" as="geometry" />
        </mxCell>
        <mxCell id="PU5KIrugvyDMVV_yki6C-1" value="" style="endArrow=none;html=1;rounded=0;" parent="1" edge="1">
          <mxGeometry width="50" height="50" relative="1" as="geometry">
            <mxPoint x="340" y="174" as="sourcePoint" />
            <mxPoint x="520" y="174" as="targetPoint" />
          </mxGeometry>
        </mxCell>
        <mxCell id="zbZ4FyOHF6UqzeL5ZnT9-1" value="" style="endArrow=none;html=1;rounded=0;" edge="1" parent="1">
          <mxGeometry width="50" height="50" relative="1" as="geometry">
            <mxPoint x="340" y="264.5" as="sourcePoint" />
            <mxPoint x="520" y="264.5" as="targetPoint" />
          </mxGeometry>
        </mxCell>
        <mxCell id="zbZ4FyOHF6UqzeL5ZnT9-3" value="Atlas Observations&lt;br&gt;By Egeria" style="shape=cylinder3;whiteSpace=wrap;html=1;boundedLbl=1;backgroundOutline=1;size=5;fillColor=#76608a;strokeColor=#432D57;fontColor=#ffffff;" vertex="1" parent="1">
          <mxGeometry x="570" y="190" width="140" height="60" as="geometry" />
        </mxCell>
      </root>
    </mxGraphModel>
  </diagram>
</mxfile>
